<svg xmlns="http://www.w3.org/2000/svg" width="70.803" height="42.498" viewBox="0 0 70.803 42.498">
  <path id="Icon_awesome-signature" data-name="Icon awesome-signature" d="M68.968,18.666c-5.733.387-13.911,6.054-18.05,7.913-3.22,1.45-6,2.7-8.422,2.7-2.5,0-2.877-1.793-2.357-5.744.122-.885,1.295-8.765-4.726-8.422-2.778.166-7.116,2.745-18.758,13.944l4.593-11.476A9.562,9.562,0,0,0,6.894,6.2L.818,10.289a1.78,1.78,0,0,0-.542,2.446l1.9,2.988a1.76,1.76,0,0,0,2.446.542l6.419-4.305a2.47,2.47,0,0,1,3.619,3L3.795,42.139A3.536,3.536,0,0,0,7.082,47a3.5,3.5,0,0,0,2.5-1.04c4.67-4.67,17.12-16.678,23.373-21.669-.243,3.154-.232,6.518,2.28,9.274a9.339,9.339,0,0,0,7.249,2.8c3.94,0,7.525-1.616,11.321-3.32,3.652-1.638,10.956-6.928,15.317-7.282A1.777,1.777,0,0,0,70.8,24.011V20.459a1.756,1.756,0,0,0-1.837-1.793Z" transform="translate(-0.002 -4.499)"/>
</svg>
