<svg xmlns="http://www.w3.org/2000/svg" width="62.911" height="83.881" viewBox="0 0 62.911 83.881">
  <path id="Icon_awesome-file-contract" data-name="Icon awesome-file-contract" d="M36.7,22.281V0H3.932A3.923,3.923,0,0,0,0,3.932V79.949a3.922,3.922,0,0,0,3.932,3.932H58.979a3.923,3.923,0,0,0,3.932-3.932V26.213H40.63A3.943,3.943,0,0,1,36.7,22.281ZM10.485,11.8A1.31,1.31,0,0,1,11.8,10.485H24.9A1.31,1.31,0,0,1,26.213,11.8v2.621A1.31,1.31,0,0,1,24.9,15.728H11.8a1.31,1.31,0,0,1-1.311-1.311Zm0,10.485A1.31,1.31,0,0,1,11.8,20.97H24.9a1.31,1.31,0,0,1,1.311,1.311V24.9A1.31,1.31,0,0,1,24.9,26.213H11.8A1.31,1.31,0,0,1,10.485,24.9Zm31.588,40.63H49.8a2.621,2.621,0,0,1,0,5.243H42.073a7.043,7.043,0,0,1-6.33-3.909,1.815,1.815,0,0,0-1.666-1.068,1.787,1.787,0,0,0-1.642,1.014L31.179,66.7a2.619,2.619,0,0,1-2.344,1.448c-.062,0-.123,0-.187-.008a2.612,2.612,0,0,1-2.3-1.784l-2.757-8.267-1.738,5.223a7.073,7.073,0,0,1-6.717,4.838h-2.03a2.621,2.621,0,0,1,0-5.243h2.03a1.836,1.836,0,0,0,1.743-1.255L19.86,52.7a3.933,3.933,0,0,1,7.462,0L29.6,59.526a7.352,7.352,0,0,1,10.813,2.32A1.869,1.869,0,0,0,42.073,62.911ZM61.764,17.2,45.725,1.147A3.929,3.929,0,0,0,42.94,0h-1V20.97h20.97v-1A3.919,3.919,0,0,0,61.764,17.2Z"/>
</svg>
