<svg xmlns="http://www.w3.org/2000/svg" width="792" height="63" viewBox="0 0 792 63">
  <g id="Calendario" transform="translate(0 -0.057)">
    <g id="Rectangle_8" data-name="Rectangle 8" transform="translate(0 0.057)" fill="#fff" stroke="#707070" stroke-width="1">
      <rect width="792" height="63" stroke="none"/>
      <rect x="0.5" y="0.5" width="791" height="62" fill="none"/>
    </g>
    <path id="Icon_awesome-calendar-alt" data-name="Icon awesome-calendar-alt" d="M0,38.758a3.984,3.984,0,0,0,3.956,4.009H32.967a3.984,3.984,0,0,0,3.956-4.009V16.038H0ZM26.374,22.386a1,1,0,0,1,.989-1h3.3a1,1,0,0,1,.989,1v3.341a1,1,0,0,1-.989,1h-3.3a1,1,0,0,1-.989-1Zm0,10.692a1,1,0,0,1,.989-1h3.3a1,1,0,0,1,.989,1V36.42a1,1,0,0,1-.989,1h-3.3a1,1,0,0,1-.989-1ZM15.824,22.386a1,1,0,0,1,.989-1h3.3a1,1,0,0,1,.989,1v3.341a1,1,0,0,1-.989,1h-3.3a1,1,0,0,1-.989-1Zm0,10.692a1,1,0,0,1,.989-1h3.3a1,1,0,0,1,.989,1V36.42a1,1,0,0,1-.989,1h-3.3a1,1,0,0,1-.989-1ZM5.275,22.386a1,1,0,0,1,.989-1h3.3a1,1,0,0,1,.989,1v3.341a1,1,0,0,1-.989,1h-3.3a1,1,0,0,1-.989-1Zm0,10.692a1,1,0,0,1,.989-1h3.3a1,1,0,0,1,.989,1V36.42a1,1,0,0,1-.989,1h-3.3a1,1,0,0,1-.989-1ZM32.967,5.346H29.011V1.336A1.332,1.332,0,0,0,27.693,0H25.055a1.332,1.332,0,0,0-1.319,1.336V5.346H13.187V1.336A1.332,1.332,0,0,0,11.868,0H9.231A1.332,1.332,0,0,0,7.912,1.336V5.346H3.956A3.984,3.984,0,0,0,0,9.356v4.009H36.923V9.356A3.984,3.984,0,0,0,32.967,5.346Z" transform="translate(740.209 9.941)"/>
    <text id="mm_dd_yyyy" data-name="mm/dd/yyyy" transform="translate(71 37.057)" font-size="21" font-family="MyriadPro-Regular, Myriad Pro" opacity="0.498"><tspan x="-56" y="0">mm/dd/yyyy</tspan></text>
  </g>
</svg>
