<svg xmlns="http://www.w3.org/2000/svg" width="102.786" height="61.696" viewBox="0 0 102.786 61.696">
  <path id="Icon_awesome-signature" data-name="Icon awesome-signature" d="M100.121,25.066c-8.322.562-20.195,8.788-26.2,11.487-4.675,2.1-8.708,3.92-12.226,3.92-3.631,0-4.177-2.6-3.422-8.338.177-1.285,1.88-12.724-6.86-12.226-4.033.241-10.33,3.984-27.232,20.243l6.667-16.66C35.728,11.3,22.3-.849,10.007,6.975L1.186,12.9A2.584,2.584,0,0,0,.4,16.454l2.763,4.338a2.555,2.555,0,0,0,3.551.787l9.318-6.25a3.586,3.586,0,0,1,5.254,4.354L5.508,59.142a5.133,5.133,0,0,0,4.772,7.053,5.081,5.081,0,0,0,3.631-1.51c6.78-6.78,24.854-24.211,33.931-31.457-.353,4.579-.337,9.463,3.31,13.463,2.458,2.7,5.993,4.065,10.523,4.065,5.719,0,10.925-2.346,16.436-4.82,5.3-2.378,15.905-10.057,22.235-10.571a2.579,2.579,0,0,0,2.442-2.538V27.668a2.549,2.549,0,0,0-2.667-2.6Z" transform="translate(-0.002 -4.499)"/>
</svg>
