<svg xmlns="http://www.w3.org/2000/svg" width="230.957" height="230.956" viewBox="0 0 230.957 230.956">
  <path id="Icon_ionic-ios-checkmark-circle" data-name="Icon ionic-ios-checkmark-circle" d="M118.853,3.375A115.478,115.478,0,1,0,234.331,118.853,115.461,115.461,0,0,0,118.853,3.375ZM177.98,86.93l-74.228,74.561H103.7c-.944.944-3.5,3.054-6.44,3.054a9.719,9.719,0,0,1-6.5-3.165l-31.09-31.09a2.212,2.212,0,0,1,0-3.165l9.882-9.882a2.147,2.147,0,0,1,3.109,0l24.65,24.65,67.732-68.232A2.192,2.192,0,0,1,166.6,73h0a2.016,2.016,0,0,1,1.555.666l9.716,10.049A2.189,2.189,0,0,1,177.98,86.93Z" transform="translate(-3.375 -3.375)" fill="#88c14a"/>
</svg>
